<svg width="129" height="147" viewBox="0 0 129 147" fill="none" xmlns="http://www.w3.org/2000/svg">
<path d="M64.5295 146.239C62.5828 146.239 60.6495 145.729 58.9428 144.746L41.1602 134.218C38.5042 132.733 39.8002 132.207 40.6762 131.905C44.2175 130.665 44.9362 130.385 48.7162 128.238C49.1135 128.011 49.6335 128.091 50.0402 128.331L63.7015 136.438C64.1948 136.705 64.8948 136.705 65.3522 136.438L118.619 105.691C119.112 105.411 119.432 104.838 119.432 104.251V42.7849C119.432 42.1715 119.112 41.6249 118.608 41.3182L65.3628 10.5983C64.8695 10.3049 64.2162 10.3049 63.7228 10.5983L10.4883 41.3182C9.97226 41.6115 9.64427 42.1849 9.64427 42.7715V104.238C9.64427 104.825 9.96426 105.385 10.4709 105.665L25.0576 114.091C32.9776 118.051 37.8176 113.385 37.8176 108.691V48.0249C37.8176 47.1582 38.4975 46.4915 39.3642 46.4915H46.1109C46.9509 46.4915 47.6442 47.1582 47.6442 48.0249V108.718C47.6442 119.278 41.8842 125.345 31.8709 125.345C28.7909 125.345 26.3642 125.345 19.5909 122.011L5.6176 113.958C2.16428 111.958 0.0309448 108.225 0.0309448 104.238V42.7715C0.0309448 38.7715 2.16428 35.0382 5.6176 33.0649L58.9375 2.30495C62.3108 0.398288 66.7908 0.398288 70.1375 2.30495L123.391 33.0782C126.831 35.0649 128.977 38.7849 128.977 42.7849V104.251C128.977 108.238 126.831 111.958 123.391 113.958L70.1375 144.718C68.4308 145.705 66.4975 146.211 64.5242 146.211" fill="#689F63"/>
<path d="M80.9828 103.885C57.6762 103.885 52.7896 93.1861 52.7896 84.2128C52.7896 83.3595 53.4775 82.6794 54.3322 82.6794H61.2122C61.9722 82.6794 62.6122 83.2328 62.7322 83.9835C63.7722 90.9941 66.8655 94.5301 80.9588 94.5301C92.1855 94.5301 96.9588 91.9941 96.9588 86.0408C96.9588 82.6141 95.5988 80.0674 78.1588 78.3608C63.5722 76.9208 54.5589 73.7075 54.5589 62.0408C54.5589 51.2942 63.6255 44.8942 78.8122 44.8942C95.8655 44.8942 104.319 50.8142 105.385 63.5342C105.425 63.9742 105.265 64.4008 104.972 64.7208C104.679 65.0275 104.265 65.2141 103.839 65.2141H96.9188C96.1988 65.2141 95.5721 64.7075 95.4255 64.0142C93.7588 56.6408 89.7322 54.2808 78.7855 54.2808C66.5322 54.2808 65.1055 58.5475 65.1055 61.7475C65.1055 65.6275 66.7855 66.7608 83.3188 68.9475C99.6921 71.1208 107.465 74.1875 107.465 85.6941C107.465 97.2941 97.7855 103.947 80.9055 103.947L80.9828 103.885Z" fill="#689F63"/>
</svg>
