<svg version="1.1" xmlns="http://www.w3.org/2000/svg" xmlns:xlink="http://www.w3.org/1999/xlink" width="175.30805" height="156.11922" viewBox="0,0,175.30805,156.11922"><g transform="translate(-152.34597,-101.94039)"><g data-paper-data="{&quot;isPaintingLayer&quot;:true}" fill-rule="nonzero" stroke="none" stroke-width="1" stroke-linecap="butt" stroke-linejoin="miter" stroke-miterlimit="10" stroke-dasharray="" stroke-dashoffset="0" style="mix-blend-mode: normal"><path d="M291.02729,209.42645c5.18134,22.65497 2.93014,40.70034 -7.11095,46.48915c-2.3584,1.35787 -5.07414,2.00107 -8.07575,2.00107c-9.82668,0 -22.69071,-6.93228 -35.69767,-19.01017c-13.00696,12.14936 -25.87098,19.1531 -35.69767,19.1531c-3.00161,0 -5.71734,-0.6432 -8.04001,-2.00107c-10.07682,-5.78881 -12.36376,-23.86991 -7.21815,-46.59635c-22.29764,-6.82508 -36.84113,-17.83097 -36.84113,-29.44432c0,-11.57762 14.47203,-22.54777 36.6982,-29.40859c-5.18134,-22.65497 -2.93014,-40.70034 7.11095,-46.48915c2.3584,-1.35787 5.07414,-2.00107 8.07575,-2.00107v0v7.96855c-1.64374,0 -3.03734,0.28587 -4.10934,0.92907c-4.82401,2.82294 -6.89655,13.43576 -5.21708,27.08592c0.4288,3.32321 1.03627,6.78935 1.85814,10.36269c7.00375,-1.75094 14.65069,-3.07307 22.72644,-3.93067c4.75254,-6.61068 9.75522,-12.57816 14.75789,-17.83097c-11.64909,-10.75575 -22.61924,-16.65176 -30.01605,-16.65176v-7.96855c9.82668,0 22.69071,6.93228 35.69767,19.01017c13.00696,-12.14936 25.87098,-19.1531 35.69767,-19.1531v0v7.96855c-7.43255,0 -18.36697,5.93174 -30.01605,16.75896c5.03841,5.25281 10.04109,11.25602 14.86509,17.8667c8.04001,0.8576 15.68696,2.17974 22.69071,3.89494c0.78613,-3.60907 1.42934,-7.14668 1.8224,-10.50562c1.64374,-13.65016 -0.46453,-24.26298 -5.32428,-27.05018c-1.10774,-0.60747 -2.42987,-0.92907 -4.07361,-0.92907v-7.96855c2.96587,0 5.68161,0.6432 8.00428,2.00107c10.07682,5.78881 12.36376,23.86991 7.21815,46.59635c22.29764,6.82508 36.84113,17.83097 36.84113,29.44432c0,11.57762 -14.47203,22.58351 -36.62673,29.40859zM266.47845,153.36075c1.75094,2.71574 3.50187,5.50294 5.14561,8.36162c1.67947,2.85867 3.21601,5.71734 4.68108,8.57602c1.85814,-4.75254 3.50187,-9.50508 4.82401,-14.11469c-4.68108,-1.14347 -9.57655,-2.07254 -14.65069,-2.82294zM272.16006,179.98213c-2.2512,-4.78828 -4.71681,-9.54082 -7.43255,-14.22189c-2.78721,-4.78828 -5.68161,-9.32642 -8.64748,-13.57869c-5.28854,-0.4288 -10.68429,-0.67893 -16.08003,-0.67893c-5.43148,0 -10.82722,0.25013 -16.1515,0.71467c-2.96587,4.25227 -5.82454,8.82615 -8.61175,13.65016c-2.68,4.68108 -5.18134,9.46935 -7.39681,14.25763c2.2512,4.78828 4.71681,9.54082 7.43255,14.22189c2.78721,4.78828 5.68161,9.32642 8.64748,13.57869c5.28854,0.4288 10.68429,0.67893 16.08003,0.67893c5.43148,0 10.82722,-0.25013 16.1515,-0.71467c2.96587,-4.25227 5.82454,-8.82615 8.61175,-13.65016c2.68,-4.68108 5.14561,-9.46935 7.39681,-14.25763zM271.65979,198.20617c-1.64374,2.89441 -3.39467,5.71734 -5.14561,8.46882c5.10988,-0.7504 10.04109,-1.7152 14.72216,-2.85867c-1.35787,-4.64534 -3.00161,-9.43362 -4.93121,-14.22189c-1.46507,2.85867 -3.00161,5.75308 -4.64534,8.61175zM249.89815,216.28727c-3.25174,0.17867 -6.57495,0.25013 -9.93388,0.25013c-3.32321,0 -6.61068,-0.1072 -9.82668,-0.25013c3.28747,4.18081 6.61068,8.00428 9.93388,11.43469c3.28747,-3.43041 6.61068,-7.25388 9.82668,-11.43469zM208.34021,198.31337c-1.67947,-2.85867 -3.21601,-5.71734 -4.68108,-8.57602c-1.85814,4.75254 -3.50187,9.50508 -4.82401,14.11469c4.68108,1.14347 9.57655,2.07254 14.65069,2.82294c-1.75094,-2.71574 -3.46614,-5.50294 -5.14561,-8.36162zM230.06612,143.74847c3.25174,-0.17867 6.57495,-0.25013 9.93388,-0.25013c3.32321,0 6.61068,0.1072 9.82668,0.25013c-3.28747,-4.18081 -6.61068,-8.00428 -9.93388,-11.43469c-3.28747,3.43041 -6.61068,7.25388 -9.82668,11.43469zM198.72792,156.18369c1.35787,4.64534 3.00161,9.43362 4.93121,14.22189c1.46507,-2.85867 3.00161,-5.71734 4.64534,-8.57602c1.64374,-2.89441 3.39467,-5.71734 5.14561,-8.46882c-5.10988,0.7504 -10.04109,1.7152 -14.72216,2.82294zM191.11671,201.74377c2.00107,-6.96801 4.64534,-14.22189 7.93281,-21.65444c-3.32321,-7.46828 -6.00321,-14.75789 -8.04001,-21.76164c-3.46614,1.10774 -6.82508,2.28694 -9.89815,3.60907c-12.64962,5.36001 -20.83257,12.47096 -20.83257,18.0811c0,5.61014 8.18295,12.68536 20.83257,18.0811c3.10881,1.32214 6.46775,2.53707 10.00535,3.64481zM204.3738,250.1268c7.43255,0 18.36697,-5.93174 30.01605,-16.75896c-5.03841,-5.25281 -10.04109,-11.25602 -14.86509,-17.8667c-8.04001,-0.8576 -15.68696,-2.17974 -22.69071,-3.89494c-0.78613,3.60907 -1.42934,7.14668 -1.8224,10.50562c-1.64374,13.65016 0.46453,24.26298 5.32428,27.05018c1.072,0.60747 2.42987,0.92907 4.03787,0.9648zM283.23741,211.53472c-7.00375,1.75094 -14.65069,3.07307 -22.72644,3.93067c-4.75254,6.61068 -9.75522,12.57816 -14.75789,17.83097c11.64909,10.75575 22.61924,16.65176 30.01605,16.65176c1.64374,0 3.03734,-0.28587 4.10934,-0.92907c4.82401,-2.82294 6.89655,-13.43576 5.21708,-27.08592c-0.39307,-3.32321 -1.03627,-6.78935 -1.85814,-10.39842zM319.72121,180.01787c0,-5.61014 -8.18295,-12.68536 -20.83257,-18.0811c-3.14454,-1.32214 -6.50348,-2.53707 -10.04109,-3.64481c-2.00107,6.96801 -4.64534,14.22189 -7.93281,21.65444c3.32321,7.46828 6.00321,14.75789 8.04001,21.76164c3.46614,-1.10774 6.82508,-2.28694 9.89815,-3.60907c12.64962,-5.36001 20.83257,-12.47096 20.8683,-18.0811z" fill="#20232a"/><path d="M204.19513,102.08332v0z" fill="#61dafb"/><path d="M223.6341,180.01787c0,-9.0189 7.31126,-16.33016 16.33016,-16.33016c9.0189,0 16.33016,7.31126 16.33016,16.33016c0,9.0189 -7.31126,16.33016 -16.33016,16.33016c-9.0189,0 -16.33016,-7.31126 -16.33016,-16.33016z" fill="#20232a"/><path d="M275.55473,101.97612v0z" fill="#61dafb"/></g></g></svg>