<svg version="1.1" xmlns="http://www.w3.org/2000/svg" xmlns:xlink="http://www.w3.org/1999/xlink" width="23.83737" height="21.2" viewBox="0,0,23.83737,21.2"><g transform="translate(-228.08132,-169.4)"><g data-paper-data="{&quot;isPaintingLayer&quot;:true}" fill="#0064ab" fill-rule="nonzero" stroke="none" stroke-width="1" stroke-linecap="butt" stroke-linejoin="miter" stroke-miterlimit="10" stroke-dasharray="" stroke-dashoffset="0" style="mix-blend-mode: normal"><path d="M244.74022,185.8l-3,4.6c-0.1,0.1 -0.2,0.2 -0.4,0.2h-2.7c-0.4,0 -0.6,-0.4 -0.4,-0.8l4.9,-7.3c0.1,-0.2 0.1,-0.4 0,-0.5l-4.7,-7c-0.2,-0.3 0,-0.8 0.4,-0.8h2.7c0.2,0 0.3,0.1 0.4,0.2l2.7,4.4c0.2,0.3 0.6,0.3 0.8,0l2.7,-4.4c0.1,-0.1 0.2,-0.2 0.4,-0.2h2.7c0.4,0 0.6,0.4 0.4,0.8l-4.7,7c-0.1,0.2 -0.1,0.4 0,0.5l4.9,7.3c0.2,0.3 0,0.8 -0.4,0.8h-2.7c-0.2,0 -0.3,-0.1 -0.4,-0.2l-3,-4.6c0,-0.3 -0.4,-0.3 -0.6,0z"/><path d="M233.98132,177.6v8.4c0,0.9 0.4,1.6 1.2,1.6h0.8c-0.2,0 -0.4,0.2 -0.4,0.4c0,0.2 0.2,0.4 0.4,0.4c0.2,0 0.4,-0.2 0.4,-0.4v2.2c0,0.2 -0.2,0.4 -0.4,0.4h-1.3c-2.3,0 -4,-1.4 -4,-4v-9c0,-0.2 -0.2,-0.4 -0.4,-0.4h-1.8c-0.2,0 -0.4,-0.2 -0.4,-0.4v-2c0,-0.3 0.2,-0.5 0.4,-0.5h1.9c0.2,0 0.4,-0.2 0.4,-0.4v-4.1c0,-0.2 0.2,-0.4 0.4,-0.4h2.5c0.2,0 0.4,0.2 0.4,0.4v4.2c0,0.2 0.2,0.4 0.4,0.4h1.5c0.2,0 0.4,0.2 0.4,0.4v2c0,0.2 -0.2,0.4 -0.4,0.4h-1.5c-0.3,0 -0.5,0.2 -0.5,0.4z"/><path d="M235.98132,187.6v0c0.2,0 0.4,0.2 0.4,0.4c0,0.2 -0.2,0.4 -0.4,0.4c-0.2,0 -0.4,-0.2 -0.4,-0.4c0,-0.2 0.2,-0.4 0.4,-0.4z"/></g></g></svg>